<?xml version="1.0" encoding="UTF-8"?>
<!DOCTYPE svg PUBLIC "-//W3C//DTD SVG 1.1//EN" "http://www.w3.org/Graphics/SVG/1.1/DTD/svg11.dtd">
<!-- Creator: CorelDRAW 2019 (64-Bit) -->
<svg xmlns="http://www.w3.org/2000/svg" xml:space="preserve" width="200px" height="44px" version="1.1" style="shape-rendering:geometricPrecision; text-rendering:geometricPrecision; image-rendering:optimizeQuality; fill-rule:evenodd; clip-rule:evenodd"
viewBox="0 0 200 43.5"
 xmlns:xlink="http://www.w3.org/1999/xlink"
 xmlns:xodm="http://www.corel.com/coreldraw/odm/2003">
 <defs>
  <style type="text/css">
   <![CDATA[
    .fil1 {fill:#2e4fef}
    .fil0 {fill:#2e4fef;fill-rule:nonzero}
   ]]>
  </style>
 </defs>
 <g id="Layer_x0020_1">
  <metadata id="CorelCorpID_0Corel-Layer"/>
  <g id="_2093684350080">
   <g>
    <path class="fil0" d="M200 19.49c0,-6.66 -4.51,-11.25 -10.74,-11.25 -6.24,0 -10.83,4.68 -10.83,11.25 0,6.57 4.72,11.29 11.63,11.29 3.49,0 6.57,-1.26 8.55,-3.62l-1.69 -1.94c-1.68,1.94 -4.08,2.91 -6.78,2.91 -4.84,0 -8.38,-3.08 -8.72,-7.71l18.54 0c0,-0.34 0.04,-0.68 0.04,-0.93l0 0zm-10.74 -8.68c4.34,0 7.5,3.03 7.88,7.37l-15.72 0c0.38,-4.34 3.54,-7.37 7.84,-7.37z"/>
    <path class="fil0" d="M169.28 8.41l0 11.63c0,5.05 -2.9,8.04 -7.54,8.04 -4.21,0 -6.66,-2.4 -6.66,-7.12l0 -12.55 -2.99 0 0 12.85c0,6.36 3.71,9.52 9.36,9.52 3.54,0 6.4,-1.56 7.96,-4.25l0 4.04 2.87 0 0 -22.16 -3 0 0 0z"/>
    <path class="fil0" d="M141.1 8.41l0 4.38c-1.82,-2.95 -4.89,-4.55 -8.56,-4.55 -6.32,0 -11.04,4.55 -11.04,11.25 0,6.74 4.72,11.29 11.04,11.29 3.54,0 6.58,-1.52 8.43,-4.38l0 17.38 2.99 0 0 -35.37 -2.86 0 0 0zm-8.31 19.72c-4.71,0 -8.25,-3.46 -8.25,-8.64 0,-5.14 3.54,-8.64 8.25,-8.64 4.68,0 8.22,3.5 8.22,8.64 0,5.18 -3.54,8.64 -8.22,8.64z"/>
    <path class="fil0" d="M106.42 8.24c-3.84,0 -6.83,1.56 -8.43,4.25l0 -4.08 -2.86 0 0 22.16 2.99 0 0 -11.63c0,-5.05 2.99,-8 7.75,-8 4.21,0 6.66,2.4 6.66,7.07l0 12.56 2.99 0 0 -12.85c0,-6.36 -3.71,-9.48 -9.1,-9.48l0 0z"/>
    <path class="fil0" d="M78.02 8.24c-3.5,0 -6.78,1.09 -9.02,2.99l1.35 2.23c1.81,-1.6 4.51,-2.61 7.37,-2.61 4.13,0 6.28,2.07 6.28,5.86l0 1.35 -7.03 0c-6.37,0 -8.56,2.86 -8.56,6.28 0,3.83 3.08,6.44 8.09,6.44 3.67,0 6.28,-1.39 7.63,-3.66l0 3.45 2.86 0 0 -13.74c0,-5.73 -3.24,-8.59 -8.97,-8.59l0 0zm-1.05 20.18c-3.54,0 -5.61,-1.6 -5.61,-4.17 0,-2.28 1.39,-3.96 5.69,-3.96l6.95 0 0 3.62c-1.18,2.91 -3.66,4.51 -7.03,4.51z"/>
    <path class="fil0" d="M57.71 15.36c2.7,-1.1 4.51,-3.33 4.51,-6.7 0,-4.8 -3.79,-7.58 -10.37,-7.58l-12.72 0 0 29.49 13.57 0c7.37,0 11.08,-2.86 11.08,-7.88 0,-4 -2.28,-6.49 -6.07,-7.33l0 0zm-5.06 12.64l-10.4 0 0 -11.08 10.4 0c5.19,0 8.01,1.68 8.01,5.52 0,3.88 -2.82,5.56 -8.01,5.56zm-1.01 -24.35c4.72,0 7.46,1.81 7.46,5.35 0,3.54 -2.74,5.35 -7.46,5.35l-9.39 0 0 -10.7 9.39 0 0 0z"/>
    <polygon class="fil0" points="44.64,34.28 44.64,33.52 38.95,33.52 38.95,41.82 39.82,41.82 39.82,38.3 44.12,38.3 44.12,37.54 39.82,37.54 39.82,34.28 "/>
    <path id="1" class="fil0" d="M46.59 34.22c0.35,0 0.61,-0.27 0.61,-0.62 0,-0.32 -0.27,-0.58 -0.61,-0.58 -0.35,0 -0.62,0.27 -0.62,0.59 0,0.34 0.27,0.61 0.62,0.61zm-0.43 7.6l0.84 0 0 -6.24 -0.84 0 0 6.24z"/>
    <path id="2" class="fil0" d="M52.53 35.53c-1.08,0 -1.92,0.44 -2.37,1.2l0 -1.15 -0.81 0 0 6.24 0.84 0 0 -3.27c0,-1.43 0.85,-2.26 2.19,-2.26 1.18,0 1.87,0.68 1.87,2l0 3.53 0.84 0 0 -3.62c0,-1.79 -1.04,-2.67 -2.56,-2.67z"/>
    <path id="3" class="fil0" d="M59.57 35.53c-0.99,0 -1.92,0.31 -2.54,0.85l0.38 0.63c0.51,-0.45 1.27,-0.74 2.07,-0.74 1.17,0 1.77,0.58 1.77,1.65l0 0.38 -1.98 0c-1.79,0 -2.41,0.81 -2.41,1.77 0,1.08 0.87,1.81 2.28,1.81 1.03,0 1.77,-0.39 2.15,-1.03l0 0.97 0.8 0 0 -3.86c0,-1.62 -0.91,-2.43 -2.52,-2.43zm-0.3 5.69c-1,0 -1.58,-0.45 -1.58,-1.18 0,-0.64 0.39,-1.11 1.6,-1.11l1.96 0 0 1.02c-0.33,0.82 -1.03,1.27 -1.98,1.27z"/>
    <path id="4" class="fil0" d="M67.56 35.53c-1.08,0 -1.92,0.44 -2.37,1.2l0 -1.15 -0.81 0 0 6.24 0.85 0 0 -3.27c0,-1.43 0.84,-2.26 2.18,-2.26 1.18,0 1.87,0.68 1.87,2l0 3.53 0.84 0 0 -3.62c0,-1.79 -1.04,-2.67 -2.56,-2.67z"/>
    <path id="5" class="fil0" d="M75.03 41.88c1.05,0 1.94,-0.42 2.44,-1.23l-0.63 -0.43c-0.43,0.63 -1.09,0.91 -1.81,0.91 -1.37,0 -2.37,-0.96 -2.37,-2.43 0,-1.46 1,-2.43 2.37,-2.43 0.72,0 1.38,0.3 1.81,0.93l0.63 -0.43c-0.5,-0.82 -1.39,-1.24 -2.44,-1.24 -1.87,0 -3.22,1.31 -3.22,3.17 0,1.87 1.35,3.18 3.22,3.18z"/>
    <path id="6" class="fil0" d="M79.55 34.22c0.35,0 0.61,-0.27 0.61,-0.62 0,-0.32 -0.27,-0.58 -0.61,-0.58 -0.35,0 -0.62,0.27 -0.62,0.59 0,0.34 0.27,0.61 0.62,0.61zm-0.43 7.6l0.84 0 0 -6.24 -0.84 0 0 6.24z"/>
    <path id="7" class="fil0" d="M85.49 35.53c-1.08,0 -1.92,0.44 -2.37,1.2l0 -1.15 -0.81 0 0 6.24 0.84 0 0 -3.27c0,-1.43 0.84,-2.26 2.19,-2.26 1.18,0 1.87,0.68 1.87,2l0 3.53 0.84 0 0 -3.62c0,-1.79 -1.04,-2.67 -2.56,-2.67z"/>
    <path id="8" class="fil0" d="M95.34 35.58l0 1.2c-0.53,-0.82 -1.43,-1.25 -2.47,-1.25 -1.78,0 -3.13,1.23 -3.13,3.02 0,1.79 1.35,3.04 3.13,3.04 1.02,0 1.91,-0.42 2.43,-1.21l0 0.79c0,1.54 -0.72,2.27 -2.3,2.27 -0.96,0 -1.86,-0.32 -2.46,-0.86l-0.42 0.64c0.65,0.62 1.76,0.96 2.9,0.96 2.07,0 3.12,-0.97 3.12,-3.12l0 -5.48 -0.8 0zm-2.39 5.26c-1.37,0 -2.36,-0.94 -2.36,-2.29 0,-1.35 0.99,-2.28 2.36,-2.28 1.38,0 2.38,0.93 2.38,2.28 0,1.35 -1,2.29 -2.38,2.29z"/>
    <path id="9" class="fil0" d="M102.04 34.22c0.36,0 0.62,-0.27 0.62,-0.62 0,-0.32 -0.28,-0.58 -0.62,-0.58 -0.34,0 -0.62,0.27 -0.62,0.59 0,0.34 0.28,0.61 0.62,0.61zm-0.43 7.6l0.85 0 0 -6.24 -0.85 0 0 6.24z"/>
    <path id="10" class="fil0" d="M106.48 41.88c1.62,0 2.57,-0.7 2.57,-1.78 0,-2.39 -4.04,-1.12 -4.04,-2.81 0,-0.59 0.5,-1.03 1.62,-1.03 0.64,0 1.3,0.15 1.84,0.53l0.37 -0.67c-0.52,-0.36 -1.4,-0.59 -2.21,-0.59 -1.59,0 -2.47,0.76 -2.47,1.78 0,2.47 4.05,1.19 4.05,2.82 0,0.61 -0.49,1.02 -1.67,1.02 -0.88,0 -1.72,-0.31 -2.22,-0.7l-0.38 0.66c0.51,0.44 1.51,0.77 2.54,0.77z"/>
    <polygon id="11" class="fil0" points="114.77,41.06 114.77,37.98 119.07,37.98 119.07,37.23 114.77,37.23 114.77,34.28 119.59,34.28 119.59,33.52 113.89,33.52 113.89,41.82 119.77,41.82 119.77,41.06 "/>
    <path id="12" class="fil0" d="M123.74 35.53c-0.98,0 -1.91,0.31 -2.54,0.85l0.38 0.63c0.51,-0.45 1.27,-0.74 2.08,-0.74 1.16,0 1.77,0.58 1.77,1.65l0 0.38 -1.98 0c-1.8,0 -2.41,0.81 -2.41,1.77 0,1.08 0.86,1.81 2.27,1.81 1.04,0 1.77,-0.39 2.15,-1.03l0 0.97 0.81 0 0 -3.86c0,-1.62 -0.92,-2.43 -2.53,-2.43zm-0.29 5.69c-1,0 -1.58,-0.45 -1.58,-1.18 0,-0.64 0.39,-1.11 1.6,-1.11l1.96 0 0 1.02c-0.34,0.82 -1.04,1.27 -1.98,1.27z"/>
    <path id="13" class="fil0" d="M130.23 41.88c1.63,0 2.58,-0.7 2.58,-1.78 0,-2.39 -4.05,-1.12 -4.05,-2.81 0,-0.59 0.5,-1.03 1.63,-1.03 0.64,0 1.29,0.15 1.83,0.53l0.37 -0.67c-0.52,-0.36 -1.4,-0.59 -2.2,-0.59 -1.59,0 -2.47,0.76 -2.47,1.78 0,2.47 4.04,1.19 4.04,2.82 0,0.61 -0.48,1.02 -1.67,1.02 -0.88,0 -1.72,-0.31 -2.22,-0.7l-0.38 0.66c0.51,0.44 1.51,0.77 2.54,0.77z"/>
    <path id="14" class="fil0" d="M138.66 35.58l-2.35 5.31 -2.35 -5.31 -0.88 0 2.79 6.23 -0.27 0.61c-0.36,0.78 -0.74,1.04 -1.3,1.04 -0.45,0 -0.83,-0.17 -1.14,-0.47l-0.39 0.62c0.38,0.38 0.94,0.57 1.52,0.57 0.89,0 1.55,-0.39 2.08,-1.61l3.12 -6.99 -0.83 0z"/>
   </g>
   <path class="fil1" d="M20.95 6.32l15.05 2.49 -2.49 15.05 -15.05 -2.49 2.49 -15.05zm2.77 3.87l8.41 1.39 -1.39 8.41 -8.41 -1.39 1.39 -8.41z"/>
   <path class="fil1" d="M10.95 17.37l10.62 10.94 -10.95 10.63 -10.62 -10.95 10.95 -10.62zm-0.07 4.25l6.43 6.63 -6.63 6.43 -6.42 -6.63 6.62 -6.43z"/>
  </g>
 </g>
</svg>
